<svg width="15" height="16" viewBox="0 0 15 16" xmlns="http://www.w3.org/2000/svg"><title>77E15158-1844-4D4E-BACC-493130E597D7</title><g fill="none" fill-rule="evenodd"><path d="M4.113 5.143c.825.844 1.671 1.668 2.495 2.513-.825.843-1.668 1.667-2.495 2.51.288.299.58.593.88.88.841-.826 1.662-1.673 2.504-2.5.843.826 1.664 1.674 2.505 2.501.297-.288.59-.582.878-.88-.824-.844-1.67-1.667-2.493-2.512.824-.845 1.67-1.668 2.493-2.512-.287-.298-.58-.592-.88-.88-.84.827-1.66 1.674-2.503 2.5-.843-.825-1.663-1.675-2.506-2.5-.297.288-.59.582-.878.88M6.831.17a7.464 7.464 0 0 1 5.453 1.709c1.734 1.43 2.764 3.672 2.703 5.924-.028 2.119-1.017 4.197-2.63 5.565a7.47 7.47 0 0 1-5.431 1.779c-1.904-.135-3.733-1.049-5.004-2.476A7.495 7.495 0 0 1 .006 7.374 7.5 7.5 0 0 1 2.27 2.273 7.472 7.472 0 0 1 6.831.17" fill="#F88F8F"/><path d="M4.113 5.143c.288-.298.58-.592.878-.88.843.825 1.663 1.675 2.506 2.5C8.34 5.936 9.16 5.09 10 4.262c.299.288.592.582.88.88-.825.844-1.67 1.667-2.494 2.512.824.845 1.67 1.668 2.493 2.512-.287.298-.58.592-.878.88-.841-.827-1.662-1.675-2.505-2.5-.842.826-1.663 1.673-2.504 2.499-.3-.287-.592-.581-.88-.88.827-.843 1.67-1.667 2.495-2.51-.824-.845-1.67-1.67-2.495-2.513" fill="#FFF"/></g></svg>