<svg xmlns="http://www.w3.org/2000/svg" width="20" height="21" viewBox="0 0 20 21">
    <g fill="#99C430" fill-rule="evenodd">
        <path d="M8.271.382c3.01-.556 6.214.416 8.455 2.486-.196.228-.396.453-.594.676-1.388-1.226-3.116-2.1-4.966-2.325A9.066 9.066 0 0 0 4.41 3.075C2.548 4.527 1.276 6.718.985 9.064a9.038 9.038 0 0 0 1.561 6.366c1.482 2.141 3.918 3.6 6.511 3.852a9.025 9.025 0 0 0 6.514-1.88c2.057-1.594 3.375-4.101 3.493-6.704.112-1.748-.366-3.488-1.193-5.017.207-.24.416-.478.623-.72 1.288 2.105 1.793 4.683 1.318 7.111-.546 2.999-2.555 5.677-5.264 7.06-2.33 1.231-5.161 1.443-7.654.608-2.814-.901-5.153-3.133-6.216-5.886-1.016-2.572-.884-5.568.357-8.04C2.412 2.997 5.178.908 8.27.383"/>
        <path d="M9.496 12.766c2.936-3.454 5.857-6.921 8.793-10.375.227.193.452.386.677.582-3.127 3.702-6.256 7.404-9.388 11.104-1.466-1.368-2.941-2.726-4.396-4.103l.614-.657c1.243 1.14 2.464 2.302 3.7 3.449"/>
    </g>
</svg>