<?xml version="1.0" standalone="no"?>
<!DOCTYPE svg PUBLIC "-//W3C//DTD SVG 1.1//EN" "http://www.w3.org/Graphics/SVG/1.1/DTD/svg11.dtd" >
<svg xmlns="http://www.w3.org/2000/svg">
<metadata>Generated by IcoMoon</metadata>
<defs>
<font id="icomoon" horiz-adv-x="1024">
<font-face units-per-em="1024" ascent="960" descent="-64" />
<missing-glyph horiz-adv-x="1024" />
<glyph unicode="&#x20;" horiz-adv-x="512" d="" />
<glyph unicode="&#xe900;" glyph-name="sprayer" horiz-adv-x="585" d="M73.649 724.598l87.265 1.531-19.279 17.453 5.607-62.041h165.659l60.614 145.512-17.54-11.76h139.278v112.708h-267.65c-15.879 0-30.234-4.315-42.778-11.468-7.617-4.343-13.13-8.828-16.478-12.288-3.115-2.991-9.4-9.045-17.505-16.829-13.507-12.974-27.066-25.948-39.79-38.052-0.646-0.614-0.646-0.614-1.291-1.228-24.662-23.451-42.979-40.579-52.008-48.523-16.722-14.707-25.211-28.244-24.422-42.5 0.797-14.415 9.978-23.461 22.384-28.495 5.955-2.417 11.518-3.524 15.805-3.935l2.128-0.083zM75.116 762.909c-0.964 0.092-3.279 0.553-5.202 1.333-0.193 0.078 1.209-1.303 1.413-4.993 0.029-0.527 2.704 3.739 11.433 11.416 9.544 8.397 28.051 25.703 53.101 49.523 0.649 0.617 0.649 0.617 1.297 1.234 12.773 12.151 26.374 25.165 39.922 38.179 8.129 7.808 14.435 13.882 18.035 17.357 1.462 1.495 4.232 3.748 8.431 6.143 7.15 4.077 15.208 6.499 24.056 6.499h248.623l-19.027 19.2v-74.308l19.027 19.2h-132.893l-60.614-145.512 17.54 11.76h-135.647l18.948-17.456-5.635 62.348-104.938-1.841 2.128-0.083zM541.683 836.361l-69.33-18.427v108.496l83.511-29.023v-57.278l-14.181-3.769zM510.407 842.846v56.665l-25.223-18.154 45.457-15.798-12.831 18.154v-28.786l14.181 18.567-45.457-12.082 23.873-18.567zM324.7 666.678l-19.027 19.2v-59.446l19.027 19.2h-181.831l19.027-19.2v59.446l-19.027-19.2h181.831zM123.842 705.078v-97.846h219.885v97.846h-219.885zM373.406 401.518c-15.402 18.832-53.994 47.485-42.869 37.226-6.026 5.557-7.143 7.722-7.143 15.015 0 0.084 1.068 2.085 4.999 7.181 0.55 0.712 0.55 0.712 1.128 1.457 10.218 13.181 14.208 20.394 14.208 32.766 0 16.45-4.868 28.27-13.956 39.663-0.776 0.973-4.994 5.996-5.66 6.905-0.237 0.324 0.115-0.53 0.115-1.999 0 4.023 0.444 4.959 3.836 8.898 0.527 0.611 0.527 0.611 1.119 1.295 8.122 9.428 12.046 17.288 12.046 29.992 0 15.899-4.932 28.808-13.39 38.25-5.487 6.124-11.279 9.691-16.113 11.457l-6.341 1.147c-7.002 0.051-18.926 0.128-33.704 0.205-15.937 0.083-31.57 0.145-46.221 0.178-37.218 0.085-63.588-0.024-74.898-0.393l-10.029-0.327-5.397-8.537c-2.308-3.651-4.581-7.32-6.821-11.008-48.518-79.898-79.589-165.373-96.727-251.013-10.48-52.366-13.942-94.075-13.811-119.798 0.001-0.165 0.001-204.384 0.001-204.384 0-23.802 5.516-41.464 15.593-53.349 7.285-8.593 15.462-12.727 22.348-13.888l326.097-0.262c19.642 0 32.034 12.295 36.266 29.414 1.682 6.802 1.959 13.479 1.49 19.617-0.152 1.712-0.152 1.712-0.246 2.448 0.169 3.481 0.169 3.481 0.169 44.582-0.001 64.089-0.001 64.089-0.001 185.070 0 66.986-17.008 116.642-46.085 152.192zM381.438 64.256c0.001-41.101 0.001-41.101 0.001-47.138 0.142-2.319 0.142-2.319 0.189-2.846 0.182-2.379 0.064-5.2-0.471-7.368-0.36-1.457-322.305-0.309-322.305-0.309 4.509-0.494 4.418-0.448 3.434 0.712-3.704 4.369-6.455 13.179-6.455 28.387v204.343c-0.119 23.491 3.129 62.629 13.057 112.238 16.306 81.48 45.856 162.772 91.873 238.551 2.12 3.491 4.272 6.964 6.456 10.419l-15.426-8.864c10.679 0.348 36.904 0.456 73.583 0.373 14.611-0.033 30.207-0.095 46.11-0.178 14.749-0.077 26.647-0.153 33.624-0.205l0.138 19.199-6.479-18.053c-0.595 0.218-0.029-0.131 0.842-1.104 2.138-2.387 3.565-6.121 3.565-12.498 0-1.619-0.039-1.697-2.711-4.798-0.528-0.611-0.528-0.611-1.125-1.303-8.867-10.297-13.165-19.363-13.165-34.085 0-7.959 2.678-14.458 7.326-20.811 1.568-2.142 6.559-8.085 6.63-8.174 4.023-5.043 5.545-8.74 5.545-15.585 0-0.558-1.244-2.808-6.127-9.106-0.58-0.748-0.58-0.748-1.183-1.528-9.013-11.683-13.025-19.204-13.025-30.769 0-19.096 6.156-31.032 19.526-43.361-8.049 7.422 27.382-18.884 39.191-33.323 23.341-28.538 37.38-69.524 37.38-127.749 0-120.981 0-120.981 0.001-185.070zM542.765 669.728c-12.291 12.413-22.773 26.224-31.581 41.216-14.065 23.938-23.273 49.724-28.524 75.526-3.128 15.374-4.231 27.134-4.303 33.385l-0.217 18.978h-124.364l3.915-22.518c15.524-89.285 66.018-151.73 132.361-190.691 26.41-15.513 45.089-17.719 57.509-2.089 11.050 13.949 9.111 29.431 0.047 41.082-2.426 3.118-4.867 5.385-6.949 6.948l2.107-1.837zM517.952 640.75c-1.109 1.225-1.572 4.923-0.098 6.785 2.154 2.711 5.694 4.088 7.504 3.874-2.387 0.282-7.848 2.518-16.164 7.403-57.386 33.701-100.643 87.197-114.021 164.139l-18.741-22.518h82.899l-19.026 18.978c0.098-8.559 1.425-22.716 5.078-40.665 6.051-29.736 16.676-59.489 33.067-87.386 10.386-17.677 22.8-34.034 37.395-48.774l2.107-1.837zM137.42 727.273h186.182v-93.091h-186.182v93.091z" />
<glyph unicode="&#xe901;" glyph-name="cellphone" horiz-adv-x="626" d="M0 846.502c0 62.683 51.21 113.498 113.324 113.498h399.131c62.587 0 113.324-50.78 113.324-113.498v-797.003c0-62.683-51.21-113.498-113.324-113.498h-399.131c-62.587 0-113.324 50.78-113.324 113.498v797.003zM55.345 106.667h512.017c0 243.295 0 496.26 0 739.556h-512.017v-739.556zM243.895 48.145c-10.748-4.153-17.904-17.818-16.046-30.88 1.462-13.523 12.271-24.633 24.054-24.243 40.649-0.177 81.328-0.177 122.007 0 14.25-0.568 26.46 15.973 23.993 32.3-1.431 13.488-12.179 24.704-23.932 24.278-38.609 0.319-77.187-0.071-115.765 0.177-4.811-0.142-9.744 0.177-14.311-1.633z" />
<glyph unicode="&#xe902;" glyph-name="burger-menu" horiz-adv-x="1280" d="M0 960h1280v-128h-1280v128zM0 512h1280v-128h-1280v128zM0 64h1280v-128h-1280v128z" />
<glyph unicode="&#xe903;" glyph-name="check-on" d="M910.222 960h-796.444c-62.578 0-113.778-51.2-113.778-113.778v-796.444c0-62.578 51.2-113.778 113.778-113.778h796.444c62.578 0 113.778 51.2 113.778 113.778v796.444c0 62.578-51.2 113.778-113.778 113.778v0zM398.222 163.556l-284.444 273.504 79.644 76.581 204.8-196.923 432.356 415.726 79.644-76.581-512-492.308z" />
<glyph unicode="&#xe904;" glyph-name="check-off" d="M910.222 846.222v-796.444h-796.444v796.444h796.444zM910.222 960h-796.444c-62.578 0-113.778-51.2-113.778-113.778v-796.444c0-62.578 51.2-113.778 113.778-113.778h796.444c62.578 0 113.778 51.2 113.778 113.778v796.444c0 62.578-51.2 113.778-113.778 113.778v0 0z" />
<glyph unicode="&#xe905;" glyph-name="lamp" horiz-adv-x="964" d="M450.64 960h6.58c31.54-1.080 63.080-13 85.74-35.28 20.82-20.42 41.28-41.22 61.98-61.76 1.48-1.46 3.26-2.44 5.3-2.96 105.3-34.36 210.58-68.78 315.86-103.22-132.020-133.4-264.1-266.76-396.22-400.080-34.68 107-69.1 214.080-103.74 321.080-2.44 5.44-7.76 8.84-11.72 13.1-76.58-66.9-153.16-133.8-229.58-200.88 13.060-27.62 12.22-61.32-2.86-87.96 0.98 0.94 2.94 2.84 3.92 3.78 82.34-92.44 164.48-185.060 246.78-277.56 37.8-0.040 75.62 0.080 113.42-0.040 25.16 0.16 50.3-5.82 72.68-17.28 43.66-21.9 76.18-64.78 85-112.88 4.12-20.42 2.62-41.36 2.84-62.060h-640.68c0.28 21.9-1.5 44.14 3.54 65.66 7.34 35.1 27.14 67.26 54.82 89.98 28.24 23.6 64.98 36.74 101.76 36.58 40.32 0.080 80.64 0.040 120.94 0-69.26 77.82-138.48 155.68-207.62 233.6-23.22-10.9-50.78-12.42-74.82-3.28-21.32 7.82-39.6 23.54-50.58 43.4-13.36 23.58-15.82 52.94-6.78 78.46 10.24 29.76 36.080 53.72 66.66 61.3 23.96 6.34 50.26 2.8 71.7-9.56-1.58 1.46-3.18 2.94-4.78 4.4 75.92 66.72 152.060 133.18 228.1 199.78-24.36 22.68-41.14 54.020-43 87.56-3.080 38.3 12.38 77.6 40.88 103.42 22.62 20.88 53.32 31.82 83.88 32.7v0zM433.86 894.080c-22.88-7.1-40.58-28.16-43.72-51.9-2.94-19.6 3.96-40.2 17.92-54.2 22.3-22.34 44.62-44.68 66.96-66.96 2.86-3.020 6.66-5.58 7.68-9.86 25.24-78.16 50.44-156.36 75.74-234.5 82.96 83.86 166.020 167.62 249.020 251.46-75.68 24.74-151.34 49.44-227.020 74.14-3.36 1.28-7.28 1.68-9.9 4.32-24.3 24.38-48.66 48.72-73 73.040-16.5 16.020-41.9 21.64-63.68 14.46v0zM86.78 478.72c-11.74-4.34-20.48-16-20.84-28.6-1.28-17.58 14.44-34.16 32.16-33.42 18.38-0.58 34.32 17.38 31.58 35.58-1.42 19.94-24.38 34.080-42.9 26.44v0zM135.4 0.12c167.22-0.020 334.44-0.040 501.66 0-12.74 37.020-49.86 64.020-89.1 64-108.020 0.020-216.020 0.1-324.040-0.040-39.080-0.12-75.74-27.26-88.52-63.96z" />
<glyph unicode="&#xe906;" glyph-name="fire" horiz-adv-x="808" d="M260.609 592.6c67.253 112.616 94.13 242.501 128.912 367.4 109.332-95.59 194.584-228.515 202.003-376.642 4.5-57.767-7.905-114.562-20.796-170.505 59.105 65.064 85.86 149.952 113.224 231.677 79.293-126.966 129.885-283.485 89.266-432.464-34.174-131.588-141.56-236.542-270.594-276.067 59.348 165.518-14.959 342.347-108.967 479.164-93.887-136.695-168.68-313.524-108.967-478.921-78.928 28.336-153.114 74.429-203.827 142.411-63.483 82.577-94.495 191.909-75.158 294.917 21.526 91.455 84.766 164.181 129.399 244.568 27.728 45.727 45.241 96.441 60.808 147.276 34.539-52.173 53.754-111.643 64.699-172.815z" />
<glyph unicode="&#xe907;" glyph-name="info" horiz-adv-x="964" d="M523.785 737.824c-0.894 47.168-24.395 59.776-55.652 59.627-31.247-0.139-54.567-12.779-54.812-49.568-0.266-39.509 24.363-52.853 57.95-51.893 31.747 0.896 53.503 16.224 52.514 41.835v0zM418.406 318.112h98.932v289.408h-98.932v-289.408zM505.145 960c23.289-7.019 84.113-14.304 107.497-21.003 271.847-77.888 400.759-354.816 273.666-605.589-39.949-78.837-98.825-152.235-163-213.397-73.345-69.909-162.255-123.392-244.398-184.011h-10.639v167.019c-38.183 5.333-69.824 8.555-100.985 14.304-196.885 36.341-350.554 197.493-365.97 383.019-15.065 181.344 100.4 355.797 282.464 424.896 35.906 13.621 73.302 23.275 110.017 34.763h111.346z" />
<glyph unicode="&#xe908;" glyph-name="mobile" horiz-adv-x="663" d="M540.3 177.621l-419.655 1.533v658.335l419.655-1.298v-658.57zM240.322 56.471c0 33.267 40.348 60.235 90.121 60.235s90.121-26.968 90.121-60.235c0-33.267-40.348-60.235-90.121-60.235s-90.121 26.968-90.121 60.235zM120.033 960c-66.292 0-120.033-52.098-120.033-116.364v-791.273c0-64.266 53.741-116.364 120.033-116.364l420.473 0.754c66.292 0 122.083 48.462 122.083 112.728v793.283c0 64.266-55.79 117.235-122.083 117.235h-420.473z" />
<glyph unicode="&#xe909;" glyph-name="arrow-down" horiz-adv-x="1877" d="M697.991 47.991l-641.232 600.974c-75.678 71.227-75.678 186.583 0 257.616 76.065 71.227 198.97 71.227 274.842 0l540.78-506.715 536.522 503.231c75.485 70.839 198.196 70.839 273.874 0s75.678-185.808 0-256.648l-638.716-598.651c-47.226-44.323-111.872-57.484-172.647-46.646-61.162-10.839-126.195 2.516-173.421 46.839z" />
<glyph unicode="&#xe90a;" glyph-name="cart" horiz-adv-x="1081" d="M19.108 947.358h196.016c11.476-33.628 23.084-67.255 34.56-101.009 257.353-1.011 514.838 1.264 772.060-0.885 37.33 2.402 64.239-39.443 46.564-70.669-48.674-111.881-102.757-221.614-152.090-333.242-10.157-21.618-22.161-50.947-52.236-49.177-167.26-3.287-334.52-0.253-501.78-1.264-26.777-33.754-53.819-67.255-80.464-101.136h687.111c-0.132-33.754-0.132-67.382 0-101.136-228.993 0.506-458.118-1.011-687.243 0.632-69.911-2.276-123.071 71.68-98.667 134.005 24.799 46.902 64.635 84.322 94.974 127.937-46.3 131.603-92.204 263.206-138.504 394.809-40.1-0.126-80.2 0.126-120.3 0v101.136zM247.177 132.077c60.414 23.261 134.151-20.101 140.087-82.046 8.706-52.97-34.428-106.825-89.962-112.766-55.665-8.976-112.914 32.869-118.718 86.724-7.387 45.638 22.952 93.298 68.592 108.089zM827.706 132.203c70.307 27.56 153.409-36.662 139.823-108.342-6.595-76.105-112.914-115.8-171.613-64.221-62.261 45.258-43.134 150.566 31.79 172.563z" />
<glyph unicode="&#xe90b;" glyph-name="close" d="M0 831.257c42.057 43.593 84.927 86.576 128.406 128.743 123.327-120.798 243.2-245.059 366.527-365.654 123.327 120.798 243.403 244.653 366.324 365.654 43.683-42.167 86.552-85.15 128.61-128.743-120.483-123.446-244.216-243.838-364.698-367.487 120.483-123.651 244.216-244.041 364.698-367.489-42.057-43.593-84.927-86.575-128.406-128.742-123.124 121.002-243.2 245.059-366.527 365.858-123.124-121.002-243.2-244.856-366.324-365.654-43.683 41.964-86.552 84.945-128.61 128.743 120.889 123.243 244.216 243.838 364.902 367.081-120.483 123.649-244.216 244.244-364.902 367.691z" />
<glyph unicode="&#xe90c;" glyph-name="close-circle" horiz-adv-x="960" d="M263.257 631.426c52.8-54.008 106.933-106.768 159.644-160.865-52.8-53.919-106.756-106.679-159.644-160.598 18.4-19.161 37.156-37.966 56.267-56.325 53.867 52.849 106.4 107.035 160.267 159.974 53.956-52.849 106.489-107.125 160.356-160.063 19.022 18.448 37.778 37.253 56.178 56.325-52.711 54.008-106.844 106.679-159.556 160.776 52.711 54.097 106.844 106.768 159.556 160.776-18.4 19.072-37.156 37.877-56.267 56.325-53.778-52.938-106.311-107.125-160.267-159.974-53.956 52.76-106.4 107.125-160.356 159.974-19.022-18.448-37.778-37.253-56.178-56.325zM437.213 949.68c124.711 11.586 253.244-28.341 348.978-109.353 110.933-91.528 176.889-235.014 172.978-379.125-1.778-135.644-65.067-268.613-168.356-356.22-94.756-82.081-222.756-123.879-347.556-113.809-121.867 8.645-238.933 67.109-320.267 158.459-82.844 91.261-127.822 215.675-122.578 339.020 3.822 122.186 57.156 241.699 144.889 326.453 78.044 76.645 183.022 125.394 291.911 134.574z" />
<glyph unicode="&#xe90d;" glyph-name="laptop" horiz-adv-x="1536" d="M0 45.714c0 60.594 49.366 109.714 109.234 109.714h1317.532c60.328 0 109.234-48.698 109.234-109.714 0-60.594-49.366-109.714-109.234-109.714h-1317.532c-60.328 0-109.234 48.698-109.234 109.714zM146.286 226.347v615.798c0 122.272 118.87 117.835 118.87 117.835h997.85c0 0 124.731 0 124.731-122.272v-611.36h-70.255l0.174 586.206c0 42.994-44.807 76.644-84.875 75.83s-882.467 0.438-930.272 0c-47.805-0.438-84.17-20.443-84.17-75.83l1.746-586.206h-73.799zM614.983 82.286c0 0-29.84 0-29.84-36.571s29.84-36.571 29.84-36.571h238.72c0 0 29.84 0 29.84 36.571s-29.84 36.571-29.84 36.571h-238.72z" />
<glyph unicode="&#xe90e;" glyph-name="pan" horiz-adv-x="1755" d="M439.029 890.327c0.686 32.4 25.989 62.126 57.874 67.92 19.337 3.086 39.017 1.063 58.526 1.509 19.097-0.617 39.257 2.743 57.291-5.314 26.091-10.080 44.503-36.411 45.463-64.286 0.411-25.543-0.206-51.086 0.309-76.629 60.583-0.034 121.166 0.034 181.783-0.034 37.646 0.411 75.257-11.383 106.011-33.12 38.194-26.503 64.594-68.16 74.331-113.451 74.091 0.686 148.217 0.206 222.309 0.24 0.72 26.709 15.531 52.869 39.771 64.903 18.651 10.491 40.629 8.229 61.166 8.366 105.223-0.103 210.411 0 315.634-0.069 18.549 0.274 38.229 1.406 55.234-7.474 22.491-10.423 37.2-33.326 40.697-57.497v-89.623c-3.497-22.971-17.006-44.674-37.817-55.68-13.406-7.749-29.211-9.669-44.434-9.223-120 0.309-240.034-0.24-360 0.24-38.194 0.514-70.526 35.040-70.114 72.96-73.063-0.103-146.16 0.206-219.223-0.171 0.309-121.886 0.069-243.771 0.137-365.657-0.103-50.846-18.103-101.623-51.051-140.469-42.034-51.189-108.137-80.537-174.206-78.96-167.931 0.171-335.897-0.034-503.863 0.137-56.091-0.686-112.011 21.189-152.64 59.863-43.749 40.629-69.36 99.806-69.086 159.531 0.103 121.817-0.274 243.634 0.171 365.417-14.229 0.926-28.526-0.48-42.72 0.891-16.080 2.091-28.491 16.354-30.583 32.091v8.4c2.4 15.497 14.674 29.554 30.651 31.509 15.326 1.269 30.72 0.24 46.080 0.514 7.474 34.011 23.931 66.24 48.446 91.131 33.291 34.457 80.606 54.823 128.503 55.097 61.714 0.274 123.463 0.034 185.177 0.137 0.309 25.611-0.549 51.189 0.171 76.8v0zM512.091 886.487c0.034-24.343-0.48-48.651 0.103-72.994 24.206 0.034 48.411 0.034 72.617-0.034 0.446 24.377 0.686 48.754-0.171 73.097-24.206 0.137-48.377 0.069-72.549-0.069v0zM152.4 667.23c264.034 0.034 528.034-0.034 792.069 0.034-14.16 42.171-56.263 73.029-100.869 73.063-196.594 0.069-393.189 0.103-589.783-0.034-44.846-0.069-86.64-30.96-101.417-73.063v0zM1316.606 667.161c0.171-24.274-0.171-48.583-0.034-72.891 121.851-0.48 243.737 0.034 365.589-0.24 0.034 24.309 0.171 48.651 0.137 72.96-121.886 0.377-243.806 0.069-365.691 0.171v0zM146.194 593.961c0.24-123.051-0.137-246.137 0.171-369.223 0.583-53.589 33.977-104.709 82.217-127.749 20.503-10.114 43.474-14.949 66.309-14.914 170.263 0.137 340.56-0.103 510.823 0.103 61.44-0.446 119.863 42.343 137.966 101.006 7.269 21.086 7.474 43.646 7.166 65.691 0 115.063-0.103 230.126 0.034 345.189-268.217-0.069-536.469 0.103-804.686-0.103z" />
<glyph unicode="&#xe90f;" glyph-name="user" d="M757.354 696.424c5.041-143.67-137.531-268.878-281.994-247.467-138.004 13.964-246.39 154.221-218.033 289.358 16.542 100.848 102.715 185.561 205.273 201.697 147.298 30.099 298.535-96.194 294.754-243.588zM25.584 112.437c99.092 133.12 267.185 201.542 431.34 208.679 194.718 13.653 409.442-47.321 528.542-208.368 40.487-44.684 20.007-108.141 24.103-162.133h-1007.931c4.254 53.838-16.542 117.295 23.946 161.823z" />
<glyph unicode="&#xe910;" glyph-name="logo" horiz-adv-x="2816" d="M2261.194 523.56c0 45.242 29.138 70.577 68.311 70.577 17.28 0 45.591-13.593 57.398-29.874l288.761-382.659h1.863v341.956c0 45.242 29.104 70.577 68.311 70.577 39.182 0 68.319-25.335 68.319-70.577v-513.913c0-45.217-29.138-70.519-68.319-70.519-17.339 0-44.638 13.518-57.39 29.807l-288.803 378.194h-1.771v-337.483c0-45.217-29.205-70.519-68.369-70.519-39.173 0-68.311 25.301-68.311 70.519v513.913zM161.222 463.851h-99.287c-43.778 0-61.935 31.641-61.935 62.411 0 31.675 22.779 62.436 61.935 62.436h335.229c39.165 0 61.927-30.762 61.927-62.436 0-30.77-18.208-62.411-61.927-62.411h-99.279v-454.198c0-45.226-29.129-70.519-68.353-70.519-39.182 0-68.311 25.293-68.311 70.519v454.198zM489.239 523.56c0 45.242 29.146 70.577 68.319 70.577 39.165 0 68.303-25.335 68.303-70.577v-513.913c0-45.217-29.138-70.519-68.303-70.519-39.173 0-68.319 25.301-68.319 70.519v513.913zM707.86 527.191c0 37.077 27.316 66.942 68.369 66.942 39.157 0 68.261-25.326 68.261-66.942v-195.433l224.144 237.049c10.019 10.854 27.308 25.326 52.794 25.326 34.628 0 67.442-26.239 67.442-65.133 0-23.526-14.59-42.537-44.613-72.411l-172.194-168.231 210.481-218.062c21.826-21.725 38.212-41.608 38.212-68.726 0-42.537-33.734-62.436-71.068-62.436-26.38 0-43.719 15.335-69.205 42.462l-235.992 253.38v-230.717c0-35.317-27.333-65.125-68.261-65.125-39.232 0-68.369 25.301-68.369 65.125v522.933zM1264.47 523.56c0 45.242 29.205 70.577 68.378 70.577 39.148 0 68.303-25.335 68.303-70.577v-513.913c0-45.217-29.154-70.519-68.303-70.519-39.173 0-68.378 25.301-68.378 70.519v513.913zM1564.245 80.258c39.123 0 71.035-31.625 71.035-70.552 0-38.886-31.912-70.585-71.035-70.585-39.165 0-71.018 31.699-71.018 70.585 0 38.927 31.853 70.552 71.018 70.552zM1689.064 495.497c-4.596 11.767-6.426 20.845-6.426 33.508 0 37.973 33.734 65.133 70.141 65.133 31.026 0 50.136-19.899 61.935-44.338l141.218-376.344 141.226 376.344c11.857 24.438 30.968 44.338 61.935 44.338 36.449 0 70.183-27.16 70.183-65.133 0-12.663-1.822-21.742-6.359-33.508l-199.552-503.946c-11.807-28.928-27.333-52.429-67.434-52.429-40.042 0-55.509 23.501-67.367 52.429l-199.501 503.946zM557.499 959.998c-87.58 0-158.565-70.535-158.565-157.576 0-86.925 70.985-157.51 158.565-157.51 87.597 0 158.665 70.585 158.665 157.51 0 87.041-71.068 157.576-158.665 157.576zM557.499 672.18c-67.091 0-121.389 53.997-121.389 120.591 0 11.468 1.671 22.472 4.704 33.044h233.469c3.042-10.572 4.763-21.576 4.763-33.044 0-66.594-54.34-120.591-121.548-120.591zM1332.845 959.998c-87.588 0-158.674-70.535-158.674-157.576 0-86.925 71.085-157.51 158.674-157.51 87.622 0 158.615 70.585 158.615 157.51 0 87.041-70.993 157.576-158.615 157.576zM1332.845 672.18c-67.091 0-121.456 53.997-121.456 120.591 0 11.468 1.663 22.472 4.654 33.044h233.469c3.1-10.572 4.813-21.576 4.813-33.044 0-66.594-54.348-120.591-121.481-120.591z" />
<glyph unicode="&#xe911;" glyph-name="order-tracking" d="M399.394 82.286h577.885c25.851 0 46.721 21.008 46.721 46.922v635.744h-916.724v-110.827c33.592 14.467 70.881 22.369 110.104 22.369 146.918 0 283.342-126.21 275.864-291.437-4.81-106.289-47.065-214.168-93.85-302.771zM312.076 959.771l507.124 0.229 205.277-155.903-912.403-1.778zM217.069 612.818c-119.714 0-217.069-100.431-217.069-223.907 0-201.259 182.374-406.643 190.153-415.289l27.17-30.281 26.88 30.534c7.778 8.791 189.935 217.829 189.935 415 0 123.476-97.356 223.943-217.069 223.943zM216.852 55.204c-48.406 62.552-144.496 203.321-144.496 333.671 0 83.608 64.904 151.55 144.713 151.55s144.713-67.979 144.713-151.55c0-127.818-96.56-270.323-144.93-333.671zM289.425 381.061c0-39.961-32.395-72.356-72.356-72.356s-72.356 32.395-72.356 72.356c0 39.961 32.395 72.356 72.356 72.356s72.356-32.395 72.356-72.356z" />
<glyph unicode="&#xe912;" glyph-name="search" horiz-adv-x="956" d="M401.727 316.945c146.462 0 265.194 113.389 265.194 253.261s-118.731 253.261-265.194 253.261c-146.462 0-265.194-113.389-265.194-253.261s118.731-253.261 265.194-253.261zM401.727 180.411c-220.497 0-401.727 173.075-401.727 389.794s181.229 389.794 401.727 389.794c220.497 0 401.727-173.075 401.727-389.794s-181.229-389.794-401.727-389.794zM590.007 206.958l249.878-238.634c27.266-26.039 70.479-25.045 96.518 2.221s25.045 70.479-2.221 96.518l-249.878 238.634c-27.266 26.039-70.479 25.045-96.518-2.221s-25.045-70.479 2.221-96.518z" />
<glyph unicode="&#xe913;" glyph-name="search-bold" horiz-adv-x="967" d="M411.752 332.056c133.148 0 241.085 102.365 241.085 228.638s-107.937 228.638-241.085 228.638c-133.148 0-241.085-102.365-241.085-228.638s107.937-228.638 241.085-228.638zM411.752 161.39c-225.44 0-411.752 176.693-411.752 399.305s186.311 399.305 411.752 399.305c225.44 0 411.752-176.693 411.752-399.305s-186.311-399.305-411.752-399.305zM567.057 215.416l227.162-215.434c34.196-32.43 88.207-30.999 120.637 3.197s30.999 88.207-3.197 120.637l-227.162 215.434c-34.196 32.43-88.207 30.999-120.637-3.197s-30.999-88.207 3.197-120.637z" />
<glyph unicode="&#xe914;" glyph-name="sport" d="M497.080 960h29.66c80.34-2.68 160.18-23.6 230.68-62.42 101.6-55.18 183.34-145.94 227.46-252.84 24.18-57.54 36.8-119.6 39.12-181.88v-29.62c-2.6-74.52-20.6-148.62-54.36-215.2-56.32-112.82-155.94-203.2-273.8-248.1-53.86-20.84-111.28-31.74-168.94-33.94h-29.58c-82.34 2.76-164.18 24.68-235.98 65.34-110.6 61.66-196.66 165.9-235.8 286.38-15.6 46.86-23.58 96.020-25.54 145.32v29.8c2 52.080 10.9 104 28.16 153.24 35.7 103.88 106.26 195.2 197.36 256.5 79.74 54.32 175.22 84.38 271.56 87.42v0zM385.52 887.72c64.7-82.52 119.42-172.4 168.48-264.94 96.2 35.44 189.24 86.28 259.14 162.58-83.48 77.020-198.2 117.080-311.28 114.26-39.040-0.72-77.74-6.42-116.34-11.9v0zM170.72 747.020c-51.34-58.62-85.72-131.78-98.44-208.64 144.3 1.24 289 19.5 427.64 60.2-48.8 92.18-106.62 179.74-174.52 259.020-59.28-24.060-112.62-62.42-154.68-110.58v0zM855.22 737.080c-73.86-79.68-168.9-138.34-270.96-174.62 16.22-38.080 34.92-75.18 48.22-114.46 56.48 10.7 114.040 16.28 171.56 14.86 53.78-1.080 107.32-8.48 159.64-20.78 1.64 107.26-39.1 213.62-108.46 295v0zM60.18 472.1c-0.8-42.34 1.8-84.98 11.84-126.26 17.72-76.14 55.56-147.5 108.62-204.94 57.040 78.18 126.7 147.56 207.34 201.32 56.78 37.9 118.96 67.72 184.24 87.74-12.66 37.56-30.54 73.020-48.2 108.42-149.56-47.64-307.22-66.56-463.84-66.28v0zM656.54 387.72c39.68-105.42 70.2-214.32 90.44-325.14 50.72 31.060 95.34 72.080 130.44 120.1 42.74 58.34 71.020 127.32 80.28 199.12-98.74 20.5-201.96 27-301.16 5.92v0zM228.86 98.8c60.16-51.54 134.98-85.74 213.38-97.3 84.1-12.2 172.3-3.56 250.44 30.88-22.2 116.92-53.48 232.24-96.34 343.34-149.34-46.96-279.12-148.46-367.48-276.92z" />
<glyph unicode="&#xe915;" glyph-name="electronic" horiz-adv-x="853" d="M796.444-7.487v0.2c0.003-0.051 0-0.117 0-0.2zM56.889-7.487c0 0.393 739.13 0.376 739.13 0.376 0.353 0 0.426 910.598 0.426 910.598 0-0.393-739.13-0.376-739.13-0.376-0.353 0-0.426-910.598-0.426-910.598zM0 903.487c0 31.211 25.539 56.513 57.315 56.513h738.704c31.654 0 57.315-25.312 57.315-56.513v-910.973c0-31.211-25.539-56.513-57.315-56.513h-738.704c-31.654 0-57.315 25.313-57.315 56.513v910.973zM796.444 732.444v170.678c0 0.007-739.13-0.011-739.13-0.011-0.393 0-0.426-170.667-0.426-170.667h739.556zM0 903.122c0 31.413 25.539 56.878 57.315 56.878h738.704c31.654 0 57.315-25.243 57.315-56.878v-227.567h-853.333v227.567zM113.778 846.222h56.889v-56.889h-56.889v56.889zM568.889 846.222h56.889v-56.889h-56.889v56.889zM426.667 106.667c125.675 0 227.556 101.88 227.556 227.556s-101.88 227.556-227.556 227.556c-125.675 0-227.556-101.88-227.556-227.556s101.88-227.556 227.556-227.556zM426.667 163.556c-94.257 0-170.667 76.41-170.667 170.667s76.41 170.667 170.667 170.667c94.257 0 170.667-76.41 170.667-170.667s-76.41-170.667-170.667-170.667zM682.667 846.222h56.889v-56.889h-56.889v56.889z" />
<glyph unicode="&#xe916;" glyph-name="radio-off" d="M512 960c-281.6 0-512-230.4-512-512s230.4-512 512-512c281.6 0 512 230.4 512 512s-230.4 512-512 512v0zM512 38.4c-225.28 0-409.6 184.32-409.6 409.6s184.32 409.6 409.6 409.6c225.28 0 409.6-184.32 409.6-409.6s-184.32-409.6-409.6-409.6v0z" />
<glyph unicode="&#xe917;" glyph-name="arrow-next" horiz-adv-x="585" d="M45.661 802.629c-28.564 28.564-28.564 74.876 0 103.44s74.876 28.564 103.44 0l406.349-406.349c28.564-28.564 28.564-74.876 0-103.44l-406.349-406.349c-28.564-28.564-74.876-28.564-103.44 0s-28.564 74.876 0 103.44l354.629 354.629-354.629 354.629z" />
<glyph unicode="&#xe918;" glyph-name="radio-on" d="M512 704c-143.36 0-256-112.64-256-256s112.64-256 256-256c143.36 0 256 112.64 256 256s-112.64 256-256 256v0zM512 960c-281.6 0-512-230.4-512-512s230.4-512 512-512c281.6 0 512 230.4 512 512s-230.4 512-512 512v0zM512 38.4c-225.28 0-409.6 184.32-409.6 409.6s184.32 409.6 409.6 409.6c225.28 0 409.6-184.32 409.6-409.6s-184.32-409.6-409.6-409.6v0z" />
<glyph unicode="&#xe919;" glyph-name="arrow-back" horiz-adv-x="585" d="M539.339 93.371c28.564-28.564 28.564-74.876 0-103.44s-74.876-28.564-103.44 0l-406.349 406.349c-28.564 28.564-28.564 74.876 0 103.44l406.349 406.349c28.564 28.564 74.876 28.564 103.44 0s28.564-74.876 0-103.44l-354.629-354.629 354.629-354.629z" />
<glyph unicode="&#xe91a;" glyph-name="ic-fb" horiz-adv-x="488" d="M460.631 960v-170.899h-93.106c-26.952 0-44.92-7.555-53.904-22.664-5.717-8.984-8.576-25.931-8.576-50.841v-77.793h158.036l-18.989-172.124h-139.047v-495.546h-204.589v495.546h-100.457v172.124h100.457v102.294c0 105.766 35.935 173.145 107.807 202.139 29.81 11.843 62.071 17.764 96.782 17.764h155.585z" />
<glyph unicode="&#xe91b;" glyph-name="ic-google" d="M230.181 931.162c50.675 18.948 105.419 22.756 159.026 24.243 76.012 0.263 151.981-0.175 227.993 0.219 7.396 0.263 14.572-1.663 21.662-3.632-20.174-16.279-43.017-29.495-66.998-39.253-24.594-10.196-52.206-0.481-76.8-9.452 14.003-16.454 31.333-30.239 42.229-49.187 49.537-73.649 52.119-178.937-0.35-251.668-24.55-32.077-58.858-55.27-82.839-87.871-13.128-18.117-20.217-43.323-10.065-64.459 12.341-25.731 36.234-42.754 57.589-60.521 28.357-23.981 57.939-47.305 80.388-77.281 41.485-54.044 50.5-129.75 27.088-193.16-19.298-51.55-58.421-93.91-104.019-123.799-60.127-38.859-132.507-53.913-203.268-56.276-73.124-2.932-148.349 10.459-212.546 46.736-41.835 23.324-76.1 63.584-85.596 111.24-10.59 52.382 9.058 107.126 41.704 147.999 49.493 57.239 125.287 81.22 197.186 95.311 33.214 7.921 67.917 6.302 101.043 14.135 6.652 6.958 0.044 15.491-3.195 22.362-10.459 17.854-19.999 36.978-21.924 57.895-2.713 20.086 5.208 39.253 10.459 58.202-22.23 1.794-44.592 0-66.779 2.494-58.771 4.901-113.953 35.752-151.018 81.264-40.041 45.336-49.493 110.058-39.954 168.129 15.623 84.239 79.951 155.482 158.983 186.333v0zM273.373 908.494c-23.193-4.42-44.373-17.461-58.989-36.015-28.444-35.052-37.24-82.27-32.952-126.381 5.776-59.427 28.663-117.672 66.472-164.015 31.070-38.159 82.445-59.865 131.37-49.231 31.639 4.464 56.976 28.357 69.317 56.976 19.911 49.668 15.229 105.901 2.538 156.838-14.266 51.55-34.046 106.338-78.682 139.422-27.525 22.012-64.766 29.801-99.074 22.405v0zM325.93 313.83c-39.122-1.532-77.85-10.415-114.128-25.031-30.326-12.078-58.946-31.026-76.756-58.946-17.417-24.025-21.749-54.701-20.918-83.67 2.932-49.843 37.065-94.173 81.089-115.878 66.823-33.958 145.723-44.33 218.803-27.175 36.409 9.452 73.868 25.469 96.755 56.714 28.838 36.059 31.201 88.134 14.178 129.882-23.193 51.55-72.074 83.889-116.841 115.134-23.981 17.373-54.876 9.89-82.183 8.971zM797.932 953.874c15.010 3.019 30.764 2.669 45.905 0.481 9.846-1.663 16.585-11.115 16.717-20.83 1.838-37.765-1.050-75.706 1.050-113.515 0-11.903 10.809-21.224 22.449-20.743 36.453-1.357 72.993 0.613 109.445-0.613 10.896 0.569 21.837-7.002 23.062-18.292 1.663-14.266 1.969-28.926-0.525-43.104-1.969-10.546-12.647-16.717-22.799-16.323-36.453-1.225-72.949 0.788-109.358-0.656-10.765 0.263-21.399-7.483-22.055-18.686-2.669-38.991 0.875-78.244-1.488-117.235-0.438-10.546-9.715-19.167-20.174-19.561-14.178-1.138-28.882-1.969-42.842 1.488-9.321 2.626-14.354 12.297-14.003 21.486-1.357 36.54 0.831 73.124-0.744 109.664 0.263 11.684-8.971 22.931-21.136 22.756-37.634 1.794-75.356-0.788-112.99 0.919-11.028-0.044-21.18 9.015-21.574 20.174-1.225 12.822-1.357 25.819 0.263 38.641 0.831 10.328 10.284 18.423 20.568 18.423 37.765 1.969 75.706-0.831 113.515 1.050 11.465-0.044 21.049 9.759 21.224 21.136 1.969 37.678-0.744 75.531 1.006 113.253 0 8.84 5.689 17.679 14.485 20.086z" />
<glyph unicode="&#xe91c;" glyph-name="grid" d="M46.545 960h372.364c25.706 0 46.545-20.839 46.545-46.545v-372.364c0-25.706-20.839-46.545-46.545-46.545h-372.364c-25.706 0-46.545 20.839-46.545 46.545v372.364c0 25.706 20.839 46.545 46.545 46.545zM46.545 401.455h372.364c25.706 0 46.545-20.839 46.545-46.545v-372.364c0-25.706-20.839-46.545-46.545-46.545h-372.364c-25.706 0-46.545 20.839-46.545 46.545v372.364c0 25.706 20.839 46.545 46.545 46.545zM605.091 960h372.364c25.706 0 46.545-20.839 46.545-46.545v-372.364c0-25.706-20.839-46.545-46.545-46.545h-372.364c-25.706 0-46.545 20.839-46.545 46.545v372.364c0 25.706 20.839 46.545 46.545 46.545zM605.091 401.455h372.364c25.706 0 46.545-20.839 46.545-46.545v-372.364c0-25.706-20.839-46.545-46.545-46.545h-372.364c-25.706 0-46.545 20.839-46.545 46.545v372.364c0 25.706 20.839 46.545 46.545 46.545z" />
<glyph unicode="&#xe91d;" glyph-name="toy" horiz-adv-x="1205" d="M1030.319 953.824c12.25 9.378 31.236 7.904 41.885-3.253 6.761-6.583 10.014-16.139 9.658-25.492-0.102-34.794 0.051-69.588-0.102-104.382 0.025-3.711-0.076-7.65 1.805-11.030 36.802-73.502 73.528-147.055 110.304-220.583 4.295-8.794 10.166-17.511 9.938-27.703 0.203-8.845-4.6-16.622-8.362-24.297-12.098-24.348-24.247-48.697-36.624-72.892-8.565-16.546-32.532-21.934-47.197-10.344-41.504 30.728-82.474 62.141-124.054 92.717-8.54-35.735-18.376-71.189-26.331-107.051 22.62-94.191 46.841-188.102 70.173-282.165 44.478 34.438 83.135 76.883 110.736 126.011 5.439 10.725 16.901 17.969 28.974 17.918 22.823 1.093 40.487-26.026 29.508-46.358-37.971-69.741-95.284-127.714-161.009-171.658-88.116-59.066-190.618-94.191-294.95-110.686-112.16-17.079-227.573-14.284-338.487 10.014-74.799 16.749-147.691 43.588-213.696 82.855-73.884 43.715-139.227 103.849-182.968 178.215-5.871 9.124-11.462 19.748-8.87 30.982 2.796 17.715 22.086 30.423 39.471 25.721 10.268-2.008 18.172-9.785 22.722-18.909 27.246-48.392 65.7-89.667 109.034-124.054 1.779 4.473 3.075 9.099 4.143 13.75 20.434 81.762 40.843 163.55 61.328 245.313 3.024 13.42 8.057 26.661 6.786 40.665 0.686 14.487-3.329 31.287 7.015 43.359 10.827 14.538 33.981 16.342 47.121 3.99 8.616-7.066 11.615-18.655 10.98-29.406-0.61-14.462 1.169-29.101-1.093-43.435-25.899-104.332-52.204-208.562-78.128-312.919 112.897-65.496 245.033-92.081 374.603-91.903 127.867 0.483 257.843 27.474 369.341 91.827-24.984 99.96-49.993 199.946-74.976 299.931-2.313 9.175-5.871 18.681-3.355 28.211 12.606 51.060 25.492 102.044 38.2 153.054 2.11 8.362 3.584 17.537 9.785 24.043 10.548 12.327 30.601 14.411 43.512 4.549 43.918-32.939 87.913-65.801 131.755-98.867 5.414 10.598 10.7 21.222 15.936 31.897-37.793 76.069-75.968 151.961-113.888 227.954-2.516 4.956-4.321 10.37-4.194 15.986-0.102 18.096 0.051 36.192-0.025 54.288-45.545-36.167-90.861-72.638-136.33-108.906-4.778-3.762-9.81-7.345-13.521-12.225-38.505-51.34-76.984-102.68-115.413-154.096-6.151-8.87-16.368-15.097-27.347-14.792-134.729-0.152-269.458 0.025-404.161-0.076-9.48-0.407-19.062 2.872-25.746 9.683-17.791 17.664-35.379 35.48-53.144 53.144-17.816-27.017-36.395-53.602-53.551-81-0.788-50.882 0.025-101.841-0.381-152.774 0.102-12.098-7.193-23.916-18.172-29.050-11.107-5.515-25.187-3.914-34.794 3.914-8.311 6.532-12.581 17.283-12.072 27.754 0.051 53.449-0.051 106.924 0.051 160.373-0.152 6.659 2.059 13.165 5.846 18.604 27.347 40.691 54.39 81.61 81.661 122.351 10.37 15.529 34.667 17.969 48.087 5.058 24.45-24.17 48.671-48.595 72.994-72.892 125.782 0.051 251.59-0.28 377.373 0.178 35.912 48.951 72.943 97.114 109.135 145.886 4.092 5.973 9.658 10.675 15.402 15.021 65.979 52.534 131.552 105.602 197.684 157.984zM288.545 327.758c4.194 12.784 17.054 21.959 30.499 21.756 108.525 0.102 217.025 0.025 325.55 0.025 13.801 0.254 26.814-9.48 30.956-22.569 13.42-40.462 26.966-80.898 40.436-121.36 4.194-12.072 0.585-26.331-9.023-34.769-16.012-15.656-46.206-8.031-52.509 13.572-11.285 33.295-22.213 66.691-33.396 100.011-92.818 0.051-185.611 0.025-278.404 0.025-10.42-31.312-20.866-62.624-31.261-93.937-2.567-9.023-7.091-18.045-15.453-22.95-13.801-9.15-34.311-5.515-43.69 8.26-6.303 8.489-7.981 20.053-4.499 30.016 13.775 40.589 26.992 81.356 40.792 121.919z" />
<glyph unicode="&#xe91e;" glyph-name="tshirt" horiz-adv-x="1195" d="M446.705 958.028c101.937-0.024 203.85-0.048 305.786 0.024 7.334 0.024 14.405-2.126 21.429-3.942 65.41-16.484 130.819-33.039 196.229-49.499 5.59-1.266 11.037-4.085 14.214-9.030 67.536-101.292 135.048-202.583 202.583-303.875 3.751-5.781 8.576-11.395 9.46-18.514 1.601-9.508-2.867-19.613-11.013-24.797-51.53-34.425-103.203-68.611-154.804-102.916-9.436-7.047-24.081-5.805-31.63 3.416-13.259 15.934-18.686 39.989-31.849 55.995-0.024-202.56 0-568.889 0-568.889h-737.92c0 0 0.549 368.026 0 568.889-0.764 0.741-10.941-34.352-20.019-45.389-5.399-6.355-9.914-14.549-18.323-17.272-8.003-2.915-16.89-0.621-23.627 4.252-47.731 31.773-95.487 63.475-143.242 95.224-7.024 4.85-15.528 8.791-19.398 16.842-4.085 7.812-3.082 17.678 2.15 24.678 66.604 99.763 133.136 199.526 199.573 299.408 5.733 8.911 11.634 19.446 22.886 21.907 64.645 16.436 129.362 32.585 194.007 49.045 7.74 1.863 15.433 4.539 23.507 4.443zM566.058 805.851c33.923-9.293 71.597-4.013 101.483 14.62 32.179 19.351 65.111 45.73 72.015 82.64-86.671 0-197.773 0.072-284.444 0 0 0 62.307-84.766 110.946-97.26zM249.975 860.582c-63.403-94.937-126.758-189.898-190.185-284.787 39.179-26.47 78.382-52.868 117.537-79.361 19.804 24.654 39.657 49.236 59.413 73.938 5.327 6.665 10.416 14.549 19.064 17.105 15.027 5.59 32.585-8.194 31.343-24.057 0.215-217.562-0.287-352.969 0-570.531 207.959-0.072 416.132-0.048 624.067 0 0.143 213.501-0.024 344.87 0 558.371 0.287 8.314-1.338 17.368 3.13 24.869 5.112 9.269 16.603 14.477 26.9 11.395 10.249-2.15 15.887-11.61 21.978-19.159 19.374-23.89 38.486-47.97 57.908-71.812 39.872 26.279 79.624 52.772 119.376 79.242-63.403 94.937-126.662 189.946-190.233 284.763-57.645 14.31-96.136 28.506-153.829 42.553 0 0 0-56.889-56.889-113.778s-130.771-60.401-170.667-56.889c-38.844 2.915-69.694 12.805-113.778 56.889s-56.889 56.889-56.889 113.778c-57.311-14.286-90.936-28.291-148.247-42.529zM695.608 616c4.574 2.724 9.748 2.582 14.677 2.667 40.678-0.426 81.378 0.227 122.056-0.312 13.656 0.17 23.936-18.811 20.228-35.21-2.109-12.909-12.19-21.989-22.36-21.308-41.5-0.113-82.999-0.028-124.499-0.028-8.904-0.426-17.652 6.355-21.161 16.853-4.952 13.562 0.244 31.408 11.058 37.338z" />
<glyph unicode="&#xe91f;" glyph-name="list" horiz-adv-x="1240" d="M53.895 960h1131.789c29.765 0 53.895-24.129 53.895-53.895v-161.684c0-29.765-24.129-53.895-53.895-53.895h-1131.789c-29.765 0-53.895 24.129-53.895 53.895v161.684c0 29.765 24.129 53.895 53.895 53.895zM53.895 582.737h1131.789c29.765 0 53.895-24.129 53.895-53.895v-161.684c0-29.765-24.129-53.895-53.895-53.895h-1131.789c-29.765 0-53.895 24.129-53.895 53.895v161.684c0 29.765 24.129 53.895 53.895 53.895zM53.895 205.474h1131.789c29.765 0 53.895-24.129 53.895-53.895v-161.684c0-29.765-24.129-53.895-53.895-53.895h-1131.789c-29.765 0-53.895 24.129-53.895 53.895v161.684c0 29.765 24.129 53.895 53.895 53.895z" />
<glyph unicode="&#xe920;" glyph-name="half-star" horiz-adv-x="551" d="M506.458 956.265c4.457-265.638 1.084-531.516 1.807-797.274v-3.494c-105.291-53.609-209.016-110.11-314.428-163.358 17.95 116.254 38.671 232.267 60.115 347.919-84.45 84.45-171.791 166.008-253.952 252.627 116.977 14.336 233.592 32.527 350.088 50.718 53.73 103.484 103.364 209.016 156.371 312.862z" />
<glyph unicode="&#xe921;" glyph-name="ic-bookcare" d="M97.821 836.371c-5.869 56.195 40.336 111.891 97.904 110.517 233.772 1.623 467.543 0.125 701.315 0.624v-799.22c-216.788-0.5-433.577 0.999-650.365-0.624-39.711 2.747-63.688-48.952-39.461-79.173 14.361-21.729 43.083-19.98 65.936-20.355 207.922 0.624 415.969 0.125 623.891 0.25v-99.902c-216.788 0.5-433.701-0.874-650.49 0.624-78.923-0.874-149.854 69.432-148.105 148.605-1.374 246.26-0.25 492.519-0.624 738.654v0zM347.577 747.707v-99.902h399.61v99.902h-399.61z" />
<glyph unicode="&#xe922;" glyph-name="headphone" horiz-adv-x="964" d="M186.584 856.52c92.015 72.677 211.467 109.234 328.407 100.655 72.926-4.86 144.669-26.877 207.77-63.766 106.533-61.565 187.768-165.481 221.001-284.020 28.705-99.16 22.204-206.649-11.341-303.731-7.768-24.343-18.548-47.565-28.892-70.849 6.19-62.354-1.059-128.862-34.708-183.032-28.041-45.301-77.039-80.341-131.479-81.837-19.13-0.27-39.984-2.036-56.746 9.098-17.863 11.092-30.076 31.156-30.097 52.384-0.125 109.441-0.062 218.883-0.021 328.324-0.706 31.634 26.254 60.713 57.826 62.479 21.165 0.602 42.85 1.246 63.289-5.213 46.693-13.667 84.516-49.601 106.326-92.43 16.077 47.44 25.548 97.29 26.254 147.452 0.997 61.025-11.465 122.257-36.453 177.943-28.207 63.309-72.365 119.411-127.138 161.867-58.968 46.007-130.399 75.896-204.613 85.264-83.748 10.925-170.736-3.926-245.864-42.642-78.867-40.171-144.461-105.806-184.59-184.715-35.123-68.294-50.639-146.372-44.844-222.912 2.949-41.625 11.735-82.772 25.174-122.236 21.622 42.372 58.823 77.994 104.892 91.973 20.854 6.834 43.058 6.294 64.701 5.629 31.572-1.724 58.511-30.845 57.826-62.458 0.042-109.421 0.083-218.841-0.042-328.262 0.187-31.302-26.67-59.716-57.888-61.44-20.771-0.519-42.061-1.142-62.167 4.964-44.013 12.546-80.591 44.948-102.815 84.412-29.744 52.945-35.954 115.88-30.201 175.43-28.809 60.858-49.455 126.141-55.749 193.418-5.525 53.277-2.306 107.53 10.053 159.707 24.447 105.682 86.552 201.975 172.128 268.546v0zM210.574 362.362c-26.4-6.875-48.562-25.361-63.621-47.711-19.94-29.432-28.373-65.137-30.471-100.24-1.932-36.764 1.433-74.546 15.537-108.88 12.732-31.032 35.871-59.28 67.567-72.033 16.284-7.083 34.396-6.252 51.74-5.691 6.397 1.205 3.593 9.617 4.258 14.166-0.104 105.329 0.042 210.637-0.062 315.965 0.249 2.721-0.789 6.522-4.175 6.543-13.584 0.312-27.459 1.142-40.773-2.119v0zM710.673 364.024c-3.074-1.703-2.243-5.525-2.492-8.391 0.062-106.72 0.021-213.441 0.021-320.161-0.187-3.053 0.374-7.727 4.424-7.685 14.685-0.27 29.827-1.329 44.055 3.116 16.118 4.86 30.637 14.207 42.705 25.839 27.376 26.649 41.23 64.244 46.028 101.548 4.673 39.070 2.991 79.552-9.409 117.126-11.258 33.836-33.773 65.615-66.674 81.11-18.071 9.098-39.028 9.264-58.657 7.498z" />
<glyph unicode="&#xe923;" glyph-name="tv" horiz-adv-x="1317" d="M182.857 9.143h950.857c20.198 0 36.571-16.374 36.571-36.571s-16.374-36.571-36.571-36.571h-950.857c-20.198 0-36.571 16.374-36.571 36.571s16.374 36.571 36.571 36.571zM73.143 155.429h1170.286v731.429h-1170.286v-731.429zM0 960h1316.571v-877.714h-1316.571v877.714z" />
<glyph unicode="&#xe924;" glyph-name="star" d="M1014.483 589.916c-116.375 18.071-232.87 33.852-349.365 50.839-53.007 106.255-105.291 213.112-158.78 319.247l0.12-3.735c-53.007-103.846-102.641-209.378-156.371-312.862-116.495-18.191-233.111-36.382-350.088-50.718 82.161-86.618 169.502-168.177 253.952-252.627-21.444-115.652-42.165-231.665-60.115-347.919 105.412 53.248 209.137 109.749 314.428 163.358v3.494c104.448-54.573 209.257-108.785 313.344-164.201-19.878 115.652-40.117 231.183-60.115 346.835 84.209 82.884 168.659 165.406 252.988 248.29z" />
<glyph unicode="&#xe925;" glyph-name="ic-credit-card" d="M887.467 823.467h-750.933c-52.096 0-93.397-41.771-93.397-93.867l-0.469-563.2c0-52.096 41.771-93.867 93.867-93.867h750.933c52.096 0 93.867 41.771 93.867 93.867v563.2c0 52.096-41.771 93.867-93.867 93.867zM887.467 166.4h-750.933v281.6h750.933v-281.6zM887.467 635.733h-750.933v93.867h750.933v-93.867z" />
<glyph unicode="&#xe926;" glyph-name="ic-face" d="M511.807 960c-282.52 0-511.807-227.514-511.807-508.267 0-280.378 229.288-508.053 511.807-508.053 282.627 0 511.619 227.675 511.619 508.053 0 280.753-228.991 508.267-511.619 508.267zM511.807 31.634c-216.404 0-391.759 174.169-391.759 388.969 0 36.991 5.364 72.483 15.013 106.584h753.062c10-34.1 15.525-69.593 15.525-106.584 0-214.8-175.301-388.969-391.84-388.969z" />
<glyph unicode="&#xe927;" glyph-name="ic-favorite" d="M512 9.173l-68.053 61.952c-241.707 219.179-401.28 363.733-401.28 541.141 0 144.555 113.579 258.133 258.133 258.133 81.664 0 160.043-38.016 211.2-98.091 51.157 60.075 129.536 98.091 211.2 98.091 144.555 0 258.133-113.579 258.133-258.133 0-177.408-159.573-321.963-401.28-541.611l-68.053-61.483z" />
<glyph unicode="&#xe928;" glyph-name="ic-location" horiz-adv-x="717" d="M358.4 960c-198.144 0-358.4-160.256-358.4-358.4 0-268.8 358.4-665.6 358.4-665.6s358.4 396.8 358.4 665.6c0 198.144-160.256 358.4-358.4 358.4zM358.4 473.6c-70.656 0-128 57.344-128 128s57.344 128 128 128c70.656 0 128-57.344 128-128s-57.344-128-128-128z" />
<glyph unicode="&#xe929;" glyph-name="ic-money" d="M369.223 874.37c30.608 21.498 35.102 78.828 82.714 73.119 38.017 7.652 59.88-28.422 89.030-44.697 34.616-7.652 70.447 1.943 105.549-0.364 27.936-3.765 35.466-38.503 21.134-59.273-29.15-58.787-56.479-120.124-59.516-186.806-80.285-0.121-160.571 0.121-240.856-0.121-29.272 52.106-60.366 103.12-89.030 155.469-10.931 15.183-11.903 40.203 7.045 49.677 26.843 9.838 57.208 3.158 83.929 12.996zM359.020 604.729c79.557 6.802 159.963 1.822 239.763 2.551 134.7-17.49 250.816-109.314 324.906-219.843 50.406-78.22 89.638-174.174 68.382-268.427-14.454-65.224-76.763-103.97-137.615-118.91-95.832-23.685-195.43-22.227-293.448-24.049-122.311 1.215-246.2-1.943-366.567 23.685-63.281 14.575-133.242 45.305-157.17 110.772-22.227 65.831-4.251 137.372 19.798 200.167 54.657 133.121 163 249.601 301.95 294.055v0zM464.326 559.302c-0.121-16.64-0.243-33.28-0.364-49.92-64.617-16.397-114.294-85.994-91.095-152.311 18.462-58.665 78.22-86.966 134.7-96.561 16.64-21.377-6.802-45.669-30.365-42.025-4.008 6.316-12.146 18.705-16.154 25.021-32.066 0.243-64.131-0.486-96.197-0.486 4.373-56.965 43.969-104.82 99.112-119.76 0.121-16.64 0.243-33.402 0.364-50.042 16.154 0.364 32.187 0.364 48.341 0 0.121 16.64 0.243 33.402 0.364 50.042 39.232 13.482 77.249 38.867 90.002 80.528 25.75 66.317-25.993 142.23-92.188 156.562-20.162 5.952-56.479 7.166-45.305 38.139 12.51 26.235 42.875 12.267 51.621-8.867 31.701-1.336 63.281 0.121 94.982-0.121-4.373 56.965-43.969 104.942-99.112 119.881-0.121 16.64-0.243 33.28-0.364 49.92-16.154-0.364-32.187-0.364-48.341 0z" />
<glyph unicode="&#xe92a;" glyph-name="ic-my-order" d="M113.778 960h859.654c-0.379-286.973 0.885-573.946-0.632-860.919 1.138-79.771-70.037-150.945-149.681-149.807-232.36-1.517-464.719-0.253-697.079-0.632-52.464-5.057-106.572 33.248-111.629 87.103-4.425 55.119-0.632 110.491-1.77 165.736h758.645c0.253-37.673-2.276-75.599 1.643-113.146 4.298-39.317 60.555-51.2 85.207-23.135 16.182 15.55 13.527 39.569 14.412 59.923-0.632 244.622-0.126 489.118-0.253 733.74h-657.383v-606.815h-101.136v707.951zM316.049 707.16h101.136v-101.136h-101.136v101.136zM467.753 707.16h303.407v-101.136h-303.407v101.136zM316.049 454.321h101.136v-101.136h-101.136v101.136zM467.753 454.321h303.407v-101.136h-303.407v101.136z" />
<glyph unicode="&#xe92b;" glyph-name="lipsticks" horiz-adv-x="973" d="M307.2 396.8v255.85c0 0.062-205.272 0.15-205.272 0.15 0.59 0 0.472-256 0.472-256h204.8zM51.2 652.65c0 28.36 23.090 51.35 50.728 51.35h205.744c28.016 0 50.728-22.42 50.728-51.35v-307.050h-307.2v307.050zM51.2-12.8h307.352c-0.161-0.022-0.152 358.4-0.152 358.4h-307.352c0.161 0.022 0.152-358.4 0.152-358.4zM0 345.726c0 28.208 23.195 51.074 51.048 51.074h307.504c28.193 0 51.048-22.851 51.048-51.074v-358.651c0-28.208-23.195-51.074-51.048-51.074h-307.504c-28.193 0-51.048 22.851-51.048 51.074v358.651zM332.8 627.574v313.883l-31.712-7.797c-7.346-1.806-19.517-5.49-34.947-11.327-25.574-9.676-51.156-22.066-75.191-37.528-85.163-54.786-130.106-133.629-109.183-237.079l4.146-20.499 20.914-0.026c56.326-0.071 110.069-0.019 158.44 0.112 19.909 0.054 34.297 0.108 42.052 0.144l25.481 0.118zM265.128 678.512c-41.983-0.113-88.021-0.168-136.283-0.134-6.9 69.809 26.817 122.845 89.806 163.366 19.944 12.83 41.413 23.353 62.95 31.683v-194.868c-4.966-0.016-10.467-0.032-16.472-0.048zM563.2-12.8h307.352c-0.171-0.021-0.152 460.8-0.152 460.8h-307.352c0.171 0.021 0.152-460.8 0.152-460.8zM512 448.226c0 28.152 23.195 50.974 51.048 50.974h307.504c28.193 0 51.048-22.776 51.048-50.974v-461.253c0-28.152-23.195-50.974-51.048-50.974h-307.504c-28.193 0-51.048 22.776-51.048 50.974v461.253zM486.4 499.2h460.8c14.138 0 25.6-11.462 25.6-25.6s-11.462-25.6-25.6-25.6h-460.8c-14.138 0-25.6 11.462-25.6 25.6s11.462 25.6 25.6 25.6z" />
<glyph unicode="&#xe92c;" glyph-name="book" horiz-adv-x="910" d="M90.894 225.134l384.851-203.952 384.878 203.952v619.055l-376.721-199.644c-5.128-2.718-11.184-2.718-16.34 0l-376.667 199.644v-619.055zM475.744-19.845c-2.81 0-5.619 0.694-8.184 2.024l-403.127 213.638c-6.192 3.267-10.093 9.975-10.093 17.319v662.395c0 6.708 3.273 12.924 8.647 16.48 5.401 3.498 12.139 3.845 17.786 0.838l394.971-209.33 394.971 209.33c5.647 3.007 12.412 2.66 17.786-0.838 5.374-3.556 8.675-9.773 8.675-16.48v-662.395c0-7.344-3.928-14.052-10.12-17.319l-403.155-213.638c-2.591-1.33-5.347-2.024-8.156-2.024v0zM475.652 748.268c-2.81 0-5.647 0.694-8.238 2.082l-322.491 172.986c-9.002 4.828-12.603 16.48-8.075 26.051 4.556 9.512 15.549 13.358 24.578 8.529l314.226-168.562 314.253 168.562c9.029 4.828 20.023 0.983 24.578-8.529 4.556-9.57 0.955-21.222-8.047-26.051l-322.491-172.986c-2.619-1.388-5.456-2.082-8.293-2.082zM485.927-19.848c-15.751 0-28.487 8.674-28.487 19.372v662.367c0 10.669 12.736 19.343 28.487 19.343 15.708 0 28.402-8.674 28.402-19.343v-662.367c0-10.698-12.694-19.372-28.402-19.372z" />
<glyph unicode="&#xe92d;" glyph-name="camera" horiz-adv-x="1229" d="M449.833 960h361.555c26.817-45.5 53.575-91.060 80.432-136.54 66.984-0.020 133.967 0.060 200.951-0.040 31.3 0.1 62.501-10.82 86.656-30.76 27.658-22.44 45.73-56.060 49.372-91.48v-643.16c-3.582-32.8-19.293-64.16-43.809-86.32-24.216-22.4-56.797-35.12-89.718-35.7h-961.106c-33.602 0.62-66.803 13.9-91.159 37.12-26.617 24.76-42.167 60.48-43.008 96.72v619.52c0.76 36 16.070 71.48 42.288 96.26 24.876 24.040 59.219 37.82 93.821 37.78 77.771 0.2 155.541-0.060 233.312 0.12 26.777 45.52 53.475 91.060 80.412 136.48v0zM488.798 891.74c-26.797-45.52-53.575-91.040-80.412-136.54-90.739-0.020-181.478 0.040-272.197-0.040-18.652 0.040-37.084-8.060-49.632-21.8-11.828-12.68-18.392-29.94-18.232-47.26 0-204.72-0.060-409.46 0.040-614.18-0.32-31.78 24.456-61.54 55.936-66.54 8.546-1.58 17.291-1 25.937-1.12 314.165 0.020 628.349-0.020 942.514 0.020 23.115-0.34 45.79 12.16 57.938 31.8 7.565 11.78 10.967 25.92 10.607 39.84-0.020 203.34 0.020 406.66-0.020 610 0.2 17.66-6.524 35.3-18.772 48.080-12.668 13.56-31.12 21.34-49.672 21.18-80.032 0.060-160.064 0-240.096 0.020-26.837 45.5-53.575 91.060-80.432 136.54-94.502-0.020-189.003 0-283.505 0zM999.591 684.46c24.476 4.44 50.773 3.040 73.508-7.66 9.126-4.52 18.812-11.94 19.813-22.86 0.56-11.24-9.066-19.48-18.132-24.28-23.295-11.64-50.633-13.080-75.909-8.38-13.809 3.14-28.539 7.88-37.865 19.18-5.724 6.58-6.124 16.9-0.68 23.78 9.326 12.14 24.896 17.040 39.266 20.22zM579.377 650.46c78.271 10.54 160.945-14.74 218.802-68.72 34.963-31.18 61.4-71.76 76.050-116.24 25.517-76.1 15.15-163.3-28.078-231.020-39.426-62.6-104.868-108.46-177.716-122.5-58.238-11.66-120.238-3.86-173.553 22.38-64.162 31.32-115.275 88.6-138.37 156.22-19.072 54.96-19.833 116.040-2.261 171.48 19.373 62.2 62.341 116.28 117.697 150.44 32.581 20.040 69.465 33.1 107.43 37.96v0zM585.561 582.42c-32.641-4.66-64.062-17.5-90.719-36.86-43.668-31.24-73.988-80.38-82.374-133.4-6.444-40.2-0.74-82.36 16.851-119.14 21.994-47.5 63.101-85.8 112.073-104.34 38.465-15.22 81.693-17.62 121.839-7.96 38.465 9.52 74.188 30.2 101.146 59.3 23.155 24.48 39.746 54.94 48.572 87.4 10.887 41.46 8.686 86.44-7.205 126.32-11.447 29.62-29.98 56.56-53.655 77.76-44.249 40.62-107.090 59.86-166.528 50.92z" />
<glyph unicode="&#xe92e;" glyph-name="bottle" horiz-adv-x="488" d="M240.526 960h3.821c23.565-0.54 46.831-9.78 64.067-25.98 18.928-17.42 30.491-42.64 31.128-68.44 0.299-18.12 0.020-36.22 0.139-54.34 27.446-5.78 52.822-21.1 70.337-43.16 16.778-20.82 26.252-47.36 26.61-74.14 0.219-29.42-0.020-58.84 0.119-88.24 20.878-12.52 37.218-32.66 44.184-56.14 3.284-10.28 4.1-21.12 4.697-31.84v-477.3c0.478-25.3-7.006-51.2-23.824-70.42-17.594-20.94-44.343-33.44-71.571-34h-294.621c-25.854 0.4-51.349 11.58-69.003 30.6-16.579 17.44-26.073 41.24-26.61 65.32v491.14c0.498 33.68 19.644 65.86 48.543 82.8 0.020 29.22-0.119 58.46 0.060 87.7 0.299 26.52 9.494 52.82 25.894 73.6 17.514 22.58 43.249 38.26 71.073 44.1 0.139 18.28-0.179 36.54 0.159 54.82 0.736 25.72 12.24 50.88 31.168 68.2 17.136 16.040 40.263 25.1 63.629 25.72v0zM206.372 894.88c-7.961-8.96-12.34-20.96-12.26-32.96-0.080-30.18 0.060-60.38-0.060-90.58-13.733-2.82-27.506-5.46-41.199-8.46-30.451-6.9-54.454-35.56-55.648-66.96-0.378-25.6-0.060-51.2-0.159-76.8 97.066-0.020 194.112 0 291.158-0.020-0.040 24.96 0.139 49.92-0.080 74.88-0.358 29.12-20.261 56.38-47.309 66.32-16.161 5.18-33.118 7.3-49.618 11.080-0.060 26.9-0.020 53.78-0.040 80.68-0.060 7.72 0.517 15.64-1.811 23.12-4.16 15.74-16.698 28.92-32.223 33.66-17.674 6.1-38.492 0.060-50.752-13.96v0zM48.583 521.98c-0.139-162.040-0.020-324.080-0.060-486.1-0.199-8.7 1.811-17.46 5.851-25.16 8.14-15.76 25.416-26.080 43.070-25.94 96.25-0.060 192.5 0 288.75-0.020 12.479-0.32 25.117 4.1 34.372 12.58 10.27 9.2 16.121 22.96 16.141 36.74 0.060 32.3-0.040 64.62 0.040 96.94-48.563 0.14-97.126-0.1-145.689 0.12 0.219 16.2 0.1 32.4 0.060 48.6 48.523 0.14 97.066 0 145.589 0.080-0.020 32.52 0.060 65.060-0.040 97.58-48.503-0.14-97.006-0.040-145.51-0.040 0.020 16.22 0 32.46 0 48.7 48.523 0.1 97.046 0 145.569 0.040-0.020 32.52 0 65.020-0.020 97.52-48.503 0.020-97.026 0.020-145.549 0 0.040 16.24-0.080 32.46 0.080 48.7 48.483 0.14 96.986 0 145.47 0.060-0.1 17.2 0.219 34.4-0.139 51.6-1.115 24.86-23.465 46.34-48.344 45.8-97.603 0.020-195.227 0.12-292.85-0.040-25.038-0.18-46.752-22.72-46.792-47.76z" />
<glyph unicode="&#xe92f;" glyph-name="ic-notifications" horiz-adv-x="819" d="M409.6-64c56.32 0 102.4 46.080 102.4 102.4h-204.8c0-56.32 45.568-102.4 102.4-102.4zM716.8 243.2v256c0 157.184-83.968 288.768-230.4 323.584v34.816c0 42.496-34.304 76.8-76.8 76.8s-76.8-34.304-76.8-76.8v-34.816c-146.944-34.816-230.4-165.888-230.4-323.584v-256l-102.4-102.4v-51.2h819.2v51.2l-102.4 102.4z" />
<glyph unicode="&#xe930;" glyph-name="ic-question" d="M13.102 848.568c-1.997 58.399 54.031 104.818 110.683 98.954 258.552 0.125 517.104 0 775.656 0 32.693 0.873 67.134-9.234 87.973-35.938 24.707-27.203 23.335-66.135 23.709-100.451-1.497-187.675 0.998-375.349-1.123-563.024 1.497-52.659-45.172-99.827-97.955-98.454-233.221-1.872-466.566-0.25-699.787-0.749-66.635-66.51-133.269-133.019-199.779-199.654 0.499 299.731-0.998 599.586 0.624 899.316v0zM362.122 643.798c33.068 0.125 66.26 0.125 99.453 0 0 18.094 0.125 36.187 0.25 54.156h99.952c-0.499-23.21-0.499-46.544-0.749-69.879-30.697-16.097-65.511-26.953-90.593-51.785-13.102-23.459-7.113-52.16-9.733-77.99 31.446-0.125 63.016-0.125 94.586 0.499 19.841 42.426 78.239 39.182 101.2 78.239 9.858 56.402 4.492 114.801 3.993 171.952 0.374 25.955-22.461 49.29-48.666 48.042-70.752 0.873-141.879 3.369-212.382-1.622-61.394-21.837-30.447-102.697-37.31-151.612v0zM461.7 448.387v-99.827h99.827v99.827h-99.827z" />
<glyph unicode="&#xe931;" glyph-name="ic-star-half-border" d="M1024 563.712l-368.128 31.744-143.872 338.944-143.872-339.456-368.128-31.232 279.552-242.176-83.968-359.936 316.416 190.976 316.416-190.976-83.456 359.936 279.040 242.176zM512 248.32v476.16l87.552-206.848 224.256-19.456-169.984-147.456 51.2-219.136-193.024 116.736z" />
<glyph unicode="&#xe932;" glyph-name="ic-home" horiz-adv-x="1205" d="M481.882-64v361.412h240.941v-361.412h301.176v481.882h180.706l-602.353 542.118-602.353-542.118h180.706v-481.882z" />
<glyph unicode="&#xe933;" glyph-name="ic-fav" horiz-adv-x="1158" d="M1.781 664.821c11.872 148.554 144.25 274.848 293.101 279.745 113.382 7.717 222.906-54.168 283.9-148.257 50.161 75.39 129.558 132.823 220.531 144.992 113.53 18.848 234.481-32.798 300.077-127.184 56.839-77.913 71.977-182.242 44.67-274.106-30.572-104.329-96.315-194.263-169.331-273.067-115.311-122.286-251.993-222.757-395.947-308.684-166.957 101.064-327.086 219.492-450.708 371.905-74.351 94.534-138.759 210.439-126.293 334.655v0zM99.135 698.361c-32.056-105.813 22.112-213.556 84.74-296.366 107.743-138.017 249.619-245.018 395.353-339.849 148.109 97.057 292.953 205.987 400.547 348.16 61.737 83.404 112.937 193.818 75.093 297.85-36.953 111.453-171.557 177.79-281.823 135.049-89.489-28.791-146.773-117.983-152.116-209.697h-84.294c-5.343 94.386-66.486 185.359-159.388 212.072-112.64 39.179-245.908-33.243-278.112-147.219z" />
<glyph unicode="&#xe934;" glyph-name="ic_seen" horiz-adv-x="1536" d="M768 928c-320 0-593.28-199.040-704-480 110.72-280.96 384-480 704-480s593.28 199.040 704 480c-110.72 280.96-384 480-704 480zM768 128c-176.64 0-320 143.36-320 320s143.36 320 320 320c176.64 0 320-143.36 320-320s-143.36-320-320-320zM768 640c-106.24 0-192-85.76-192-192s85.76-192 192-192c106.24 0 192 85.76 192 192s-85.76 192-192 192z" />
</font>
</defs>
</svg>
